<svg id="Capa_1" enable-background="new 0 0 497 497" height="512" viewBox="0 0 497 497" width="512" xmlns="http://www.w3.org/2000/svg"><g><path d="m248.5 0v90c24.853 0 45-20.147 45-45s-20.147-45-45-45z" fill="#ffd185"/><path d="m263.5 45c0-24.853-6.716-45-15-45-24.853 0-45 20.147-45 45s20.147 45 45 45c8.284 0 15-20.147 15-45z" fill="#ffe8c2"/><path d="m390.076 368.863 24.749 45.962-91.924-49.498-51.612-48.073 13.568-53.61z" fill="#ff9a42"/><path d="m14.359 77.941c-.396-.369-.793-.735-1.179-1.121-17.574-17.574-17.574-46.066 0-63.64 3.72-3.72 7.933-6.644 12.424-8.789l233.502 233.502-35.214 35.214z" fill="#ff9a42"/><path d="m259.107 237.893 46.963 46.964-34.781 32.397-47.397-44.146z" fill="#ff7a3c"/><path d="m365.327 322.901 24.749 45.962-45.962-24.749-50.831-47.346-8.458-33.094 34.001 9.302z" fill="#ffba48"/><path d="m35.572 56.728c-.396-.369-.793-.735-1.179-1.121-13.853-13.854-16.777-34.489-8.788-51.216 16.726-7.988 37.361-5.064 51.215 8.789.386.386.752.783 1.121 1.179l195.167 209.533-28.002 28.002z" fill="#ffba48"/><path d="m273.108 223.892 45.718 49.084-25.543 23.792-48.177-44.874z" fill="#ff9a42"/><path d="m344.114 344.114 56.569 28.284-56.569 14.143-21.213-21.214z" fill="#353535"/><path d="m365.327 322.901 21.214 21.213v42.427l-42.427-42.427z" fill="#4f4f4f"/><path d="m365.327 365.327 116.673 74.247-42.426 42.426-95.46-95.459z" fill="#4271db"/><path d="m408.664 334.951h30v135h-30z" fill="#3992e3" transform="matrix(.707 -.707 .707 .707 -160.487 417.451)"/><path d="m450.18 492.607 21.213-21.213-21.213-21.214-21.213 21.213c-5.858 5.858-5.858 15.355 0 21.213s15.355 5.859 21.213.001z" fill="#405acc"/><path d="m450.18 471.393c5.858 5.858 15.355 5.858 21.213 0l21.213-21.213c5.858-5.858 5.858-15.355 0-21.213s-15.355-5.858-21.213 0l-21.213 21.213c-5.858 5.858-5.858 15.356 0 21.213z" fill="#4271db"/><path d="m483.82 13.18c-3.72-3.72-7.933-6.644-12.424-8.789l-364.472 364.472-24.749 45.962 91.924-49.497 308.542-287.387c.396-.369.793-.735 1.179-1.121 17.573-17.574 17.573-46.066 0-63.64z" fill="#ffba48"/><path d="m461.428 56.728c.396-.369.793-.735 1.179-1.121 13.853-13.853 16.777-34.489 8.789-51.215-16.726-7.988-37.362-5.065-51.215 8.789-.386.386-.752.783-1.121 1.179l-287.387 308.541-24.749 45.962 45.962-24.749z" fill="#ffd185"/><path d="m152.886 344.114-56.569 28.284 56.569 14.143 21.213-21.214z" fill="#353535"/><path d="m131.673 322.901-21.214 21.213v42.427l42.427-42.427z" fill="#4f4f4f"/><path d="m131.673 365.327-116.673 74.247 42.426 42.426 95.46-95.459z" fill="#db2116"/><path d="m5.836 387.451h135v30h-135z" fill="#ff3a2f" transform="matrix(.707 -.707 .707 .707 -263.096 169.732)"/><path d="m46.82 492.607-21.213-21.213 21.213-21.214 21.213 21.213c5.858 5.858 5.858 15.355 0 21.213s-15.355 5.859-21.213.001z" fill="#a41910"/><path d="m46.82 471.393c-5.858 5.858-15.355 5.858-21.213 0l-21.214-21.213c-5.858-5.858-5.858-15.355 0-21.213s15.355-5.858 21.213 0l21.214 21.213c5.858 5.858 5.858 15.356 0 21.213z" fill="#db2116"/></g></svg>